<mxfile host="app.diagrams.net" agent="Mozilla/5.0 (Windows NT 10.0; Win64; x64) AppleWebKit/537.36 (KHTML, like Gecko) Chrome/131.0.0.0 Safari/537.36 " version="25.0.3">
  <diagram id="C5RBs43oDa-KdzZeNtuy" name="Page-1">
    <mxGraphModel dx="1793" dy="930" grid="1" gridSize="10" guides="1" tooltips="1" connect="1" arrows="1" fold="1" page="1" pageScale="1" pageWidth="827" pageHeight="1169" math="0" shadow="0">
      <root>
        <mxCell id="WIyWlLk6GJQsqaUBKTNV-0" />
        <mxCell id="WIyWlLk6GJQsqaUBKTNV-1" parent="WIyWlLk6GJQsqaUBKTNV-0" />
        <mxCell id="u3rmII7wA66VC7M0_gPZ-0" value="Son" style="swimlane;fontStyle=2;align=center;verticalAlign=top;childLayout=stackLayout;horizontal=1;startSize=26;horizontalStack=0;resizeParent=1;resizeLast=0;collapsible=1;marginBottom=0;rounded=0;shadow=0;strokeWidth=1;" vertex="1" collapsed="1" parent="WIyWlLk6GJQsqaUBKTNV-1">
          <mxGeometry x="595" y="840" width="160" height="26" as="geometry">
            <mxRectangle x="315" y="930" width="160" height="180" as="alternateBounds" />
          </mxGeometry>
        </mxCell>
        <mxCell id="u3rmII7wA66VC7M0_gPZ-1" value="id_son : int" style="text;align=left;verticalAlign=top;spacingLeft=4;spacingRight=4;overflow=hidden;rotatable=0;points=[[0,0.5],[1,0.5]];portConstraint=eastwest;rounded=0;shadow=0;html=0;" vertex="1" parent="u3rmII7wA66VC7M0_gPZ-0">
          <mxGeometry y="26" width="160" height="26" as="geometry" />
        </mxCell>
        <mxCell id="u3rmII7wA66VC7M0_gPZ-2" value="nom : str" style="text;align=left;verticalAlign=top;spacingLeft=4;spacingRight=4;overflow=hidden;rotatable=0;points=[[0,0.5],[1,0.5]];portConstraint=eastwest;rounded=0;shadow=0;html=0;" vertex="1" parent="u3rmII7wA66VC7M0_gPZ-0">
          <mxGeometry y="52" width="160" height="26" as="geometry" />
        </mxCell>
        <mxCell id="u3rmII7wA66VC7M0_gPZ-3" value="tags : list[str]&#xa;path_sotckage : Path()" style="text;align=left;verticalAlign=top;spacingLeft=4;spacingRight=4;overflow=hidden;rotatable=0;points=[[0,0.5],[1,0.5]];portConstraint=eastwest;rounded=0;shadow=0;html=0;" vertex="1" parent="u3rmII7wA66VC7M0_gPZ-0">
          <mxGeometry y="78" width="160" height="42" as="geometry" />
        </mxCell>
        <mxCell id="u3rmII7wA66VC7M0_gPZ-4" value="" style="line;html=1;strokeWidth=1;align=left;verticalAlign=middle;spacingTop=-1;spacingLeft=3;spacingRight=3;rotatable=0;labelPosition=right;points=[];portConstraint=eastwest;" vertex="1" parent="u3rmII7wA66VC7M0_gPZ-0">
          <mxGeometry y="120" width="160" height="8" as="geometry" />
        </mxCell>
        <mxCell id="u3rmII7wA66VC7M0_gPZ-5" value="__str__ : str" style="text;align=left;verticalAlign=top;spacingLeft=4;spacingRight=4;overflow=hidden;rotatable=0;points=[[0,0.5],[1,0.5]];portConstraint=eastwest;" vertex="1" parent="u3rmII7wA66VC7M0_gPZ-0">
          <mxGeometry y="128" width="160" height="26" as="geometry" />
        </mxCell>
        <mxCell id="u3rmII7wA66VC7M0_gPZ-6" value="__eq__ : bool" style="text;align=left;verticalAlign=top;spacingLeft=4;spacingRight=4;overflow=hidden;rotatable=0;points=[[0,0.5],[1,0.5]];portConstraint=eastwest;" vertex="1" parent="u3rmII7wA66VC7M0_gPZ-0">
          <mxGeometry y="154" width="160" height="26" as="geometry" />
        </mxCell>
        <mxCell id="u3rmII7wA66VC7M0_gPZ-7" style="edgeStyle=orthogonalEdgeStyle;rounded=0;orthogonalLoop=1;jettySize=auto;html=1;endArrow=diamond;endFill=1;exitX=1;exitY=0.5;exitDx=0;exitDy=0;entryX=0.75;entryY=1;entryDx=0;entryDy=0;" edge="1" parent="WIyWlLk6GJQsqaUBKTNV-1" source="u3rmII7wA66VC7M0_gPZ-1" target="u3rmII7wA66VC7M0_gPZ-8">
          <mxGeometry relative="1" as="geometry">
            <mxPoint x="876.5600000000002" y="897.96" as="sourcePoint" />
            <mxPoint x="1099.0000000000002" y="660.0000000000002" as="targetPoint" />
            <Array as="points">
              <mxPoint x="755" y="860" />
              <mxPoint x="800" y="860" />
              <mxPoint x="800" y="768" />
              <mxPoint x="700" y="768" />
            </Array>
          </mxGeometry>
        </mxCell>
        <mxCell id="u3rmII7wA66VC7M0_gPZ-8" value="Playlist" style="swimlane;fontStyle=0;align=center;verticalAlign=top;childLayout=stackLayout;horizontal=1;startSize=26;horizontalStack=0;resizeParent=1;resizeLast=0;collapsible=1;marginBottom=0;rounded=0;shadow=0;strokeWidth=1;" vertex="1" collapsed="1" parent="WIyWlLk6GJQsqaUBKTNV-1">
          <mxGeometry x="580" y="710" width="160" height="26" as="geometry">
            <mxRectangle x="280" y="620" width="240" height="270" as="alternateBounds" />
          </mxGeometry>
        </mxCell>
        <mxCell id="u3rmII7wA66VC7M0_gPZ-9" value="utilisateur : Utilisateur" style="text;align=left;verticalAlign=top;spacingLeft=4;spacingRight=4;overflow=hidden;rotatable=0;points=[[0,0.5],[1,0.5]];portConstraint=eastwest;" vertex="1" parent="u3rmII7wA66VC7M0_gPZ-8">
          <mxGeometry y="26" width="240" height="26" as="geometry" />
        </mxCell>
        <mxCell id="u3rmII7wA66VC7M0_gPZ-10" value="id_playlist : int" style="text;align=left;verticalAlign=top;spacingLeft=4;spacingRight=4;overflow=hidden;rotatable=0;points=[[0,0.5],[1,0.5]];portConstraint=eastwest;" vertex="1" parent="u3rmII7wA66VC7M0_gPZ-8">
          <mxGeometry y="52" width="240" height="26" as="geometry" />
        </mxCell>
        <mxCell id="u3rmII7wA66VC7M0_gPZ-11" value="nom_playlist : str" style="text;align=left;verticalAlign=top;spacingLeft=4;spacingRight=4;overflow=hidden;rotatable=0;points=[[0,0.5],[1,0.5]];portConstraint=eastwest;" vertex="1" parent="u3rmII7wA66VC7M0_gPZ-8">
          <mxGeometry y="78" width="240" height="26" as="geometry" />
        </mxCell>
        <mxCell id="u3rmII7wA66VC7M0_gPZ-12" value="list_son : [[son : Son, ordre:int]]" style="text;align=left;verticalAlign=top;spacingLeft=4;spacingRight=4;overflow=hidden;rotatable=0;points=[[0,0.5],[1,0.5]];portConstraint=eastwest;" vertex="1" parent="u3rmII7wA66VC7M0_gPZ-8">
          <mxGeometry y="104" width="240" height="26" as="geometry" />
        </mxCell>
        <mxCell id="u3rmII7wA66VC7M0_gPZ-13" value="" style="line;html=1;strokeWidth=1;align=left;verticalAlign=middle;spacingTop=-1;spacingLeft=3;spacingRight=3;rotatable=0;labelPosition=right;points=[];portConstraint=eastwest;" vertex="1" parent="u3rmII7wA66VC7M0_gPZ-8">
          <mxGeometry y="130" width="240" height="8" as="geometry" />
        </mxCell>
        <mxCell id="u3rmII7wA66VC7M0_gPZ-14" value="ajouter_son_playlist(son : Son, ordre : int)" style="text;align=left;verticalAlign=top;spacingLeft=4;spacingRight=4;overflow=hidden;rotatable=0;points=[[0,0.5],[1,0.5]];portConstraint=eastwest;" vertex="1" parent="u3rmII7wA66VC7M0_gPZ-8">
          <mxGeometry y="138" width="240" height="26" as="geometry" />
        </mxCell>
        <mxCell id="u3rmII7wA66VC7M0_gPZ-15" value="supprimer_son(son : Son) : bool" style="text;align=left;verticalAlign=top;spacingLeft=4;spacingRight=4;overflow=hidden;rotatable=0;points=[[0,0.5],[1,0.5]];portConstraint=eastwest;" vertex="1" parent="u3rmII7wA66VC7M0_gPZ-8">
          <mxGeometry y="164" width="240" height="26" as="geometry" />
        </mxCell>
        <mxCell id="u3rmII7wA66VC7M0_gPZ-16" value="changer_ordre(son: Son, ordre : int)" style="text;align=left;verticalAlign=top;spacingLeft=4;spacingRight=4;overflow=hidden;rotatable=0;points=[[0,0.5],[1,0.5]];portConstraint=eastwest;" vertex="1" parent="u3rmII7wA66VC7M0_gPZ-8">
          <mxGeometry y="190" width="240" height="26" as="geometry" />
        </mxCell>
        <mxCell id="u3rmII7wA66VC7M0_gPZ-17" value="changer_nom_playlist(nouveau_nom : str)&#xa;__str__ : str" style="text;align=left;verticalAlign=top;spacingLeft=4;spacingRight=4;overflow=hidden;rotatable=0;points=[[0,0.5],[1,0.5]];portConstraint=eastwest;" vertex="1" parent="u3rmII7wA66VC7M0_gPZ-8">
          <mxGeometry y="216" width="240" height="44" as="geometry" />
        </mxCell>
        <mxCell id="u3rmII7wA66VC7M0_gPZ-18" value="utilisateur" style="swimlane;fontStyle=2;align=center;verticalAlign=top;childLayout=stackLayout;horizontal=1;startSize=26;horizontalStack=0;resizeParent=1;resizeLast=0;collapsible=1;marginBottom=0;rounded=0;shadow=0;strokeWidth=1;" vertex="1" collapsed="1" parent="WIyWlLk6GJQsqaUBKTNV-1">
          <mxGeometry x="450" y="490" width="160" height="26" as="geometry">
            <mxRectangle x="289" y="140" width="250" height="130" as="alternateBounds" />
          </mxGeometry>
        </mxCell>
        <mxCell id="u3rmII7wA66VC7M0_gPZ-19" value="pseudo : str&#xa;mdp_hache" style="text;align=left;verticalAlign=top;spacingLeft=4;spacingRight=4;overflow=hidden;rotatable=0;points=[[0,0.5],[1,0.5]];portConstraint=eastwest;" vertex="1" parent="u3rmII7wA66VC7M0_gPZ-18">
          <mxGeometry y="26" width="250" height="44" as="geometry" />
        </mxCell>
        <mxCell id="u3rmII7wA66VC7M0_gPZ-20" value="" style="line;html=1;strokeWidth=1;align=left;verticalAlign=middle;spacingTop=-1;spacingLeft=3;spacingRight=3;rotatable=0;labelPosition=right;points=[];portConstraint=eastwest;" vertex="1" parent="u3rmII7wA66VC7M0_gPZ-18">
          <mxGeometry y="70" width="250" height="16" as="geometry" />
        </mxCell>
        <mxCell id="u3rmII7wA66VC7M0_gPZ-21" value="__str__() : str" style="text;align=left;verticalAlign=top;spacingLeft=4;spacingRight=4;overflow=hidden;rotatable=0;points=[[0,0.5],[1,0.5]];portConstraint=eastwest;" vertex="1" parent="u3rmII7wA66VC7M0_gPZ-18">
          <mxGeometry y="86" width="250" height="34" as="geometry" />
        </mxCell>
        <mxCell id="u3rmII7wA66VC7M0_gPZ-50" style="edgeStyle=orthogonalEdgeStyle;rounded=0;orthogonalLoop=1;jettySize=auto;html=1;exitX=0;exitY=0.5;exitDx=0;exitDy=0;entryX=0.75;entryY=1;entryDx=0;entryDy=0;" edge="1" parent="WIyWlLk6GJQsqaUBKTNV-1" source="u3rmII7wA66VC7M0_gPZ-22" target="u3rmII7wA66VC7M0_gPZ-46">
          <mxGeometry relative="1" as="geometry" />
        </mxCell>
        <mxCell id="u3rmII7wA66VC7M0_gPZ-22" value="PlaylistService" style="swimlane;fontStyle=0;align=center;verticalAlign=top;childLayout=stackLayout;horizontal=1;startSize=26;horizontalStack=0;resizeParent=1;resizeLast=0;collapsible=1;marginBottom=0;rounded=0;shadow=0;strokeWidth=1;" vertex="1" collapsed="1" parent="WIyWlLk6GJQsqaUBKTNV-1">
          <mxGeometry x="960" y="600" width="160" height="26" as="geometry">
            <mxRectangle x="780" y="400" width="350" height="204" as="alternateBounds" />
          </mxGeometry>
        </mxCell>
        <mxCell id="u3rmII7wA66VC7M0_gPZ-23" value="" style="line;html=1;strokeWidth=1;align=left;verticalAlign=middle;spacingTop=-1;spacingLeft=3;spacingRight=3;rotatable=0;labelPosition=right;points=[];portConstraint=eastwest;" vertex="1" parent="u3rmII7wA66VC7M0_gPZ-22">
          <mxGeometry y="26" width="350" height="8" as="geometry" />
        </mxCell>
        <mxCell id="u3rmII7wA66VC7M0_gPZ-24" value="+ creer_playlist(nom_playlist : str, list_son = [[]])&#xa;+ supprimer_playlist() &#xa;+ modifier_nom_playlist(nouveau_nom : str)&#xa;+ changer_ordre_son(son: Son, ordre:int)&#xa;+ retirer_son_playlist(son: Son)&#xa;+ copier_playlist()&#xa;+ ajouter_son_a_playlist(son: Son, ordre : int)&#xa;+ play_playlist()&#xa;+ play_next_son()&#xa;+ afficher_playlist() : list(Playlist)&#xa;+ afficher_playlist_tous() : list(Playlist)&#xa;" style="text;align=left;verticalAlign=top;spacingLeft=4;spacingRight=4;overflow=hidden;rotatable=0;points=[[0,0.5],[1,0.5]];portConstraint=eastwest;" vertex="1" parent="u3rmII7wA66VC7M0_gPZ-22">
          <mxGeometry y="34" width="350" height="170" as="geometry" />
        </mxCell>
        <mxCell id="u3rmII7wA66VC7M0_gPZ-49" style="edgeStyle=orthogonalEdgeStyle;rounded=0;orthogonalLoop=1;jettySize=auto;html=1;exitX=0.25;exitY=1;exitDx=0;exitDy=0;entryX=1;entryY=0.5;entryDx=0;entryDy=0;" edge="1" parent="WIyWlLk6GJQsqaUBKTNV-1" source="u3rmII7wA66VC7M0_gPZ-25" target="u3rmII7wA66VC7M0_gPZ-46">
          <mxGeometry relative="1" as="geometry" />
        </mxCell>
        <mxCell id="u3rmII7wA66VC7M0_gPZ-25" value="UtilisateurService" style="swimlane;fontStyle=0;align=center;verticalAlign=top;childLayout=stackLayout;horizontal=1;startSize=26;horizontalStack=0;resizeParent=1;resizeLast=0;collapsible=1;marginBottom=0;rounded=0;shadow=0;strokeWidth=1;" vertex="1" collapsed="1" parent="WIyWlLk6GJQsqaUBKTNV-1">
          <mxGeometry x="971" y="500" width="160" height="26" as="geometry">
            <mxRectangle x="810" y="150" width="340" height="160" as="alternateBounds" />
          </mxGeometry>
        </mxCell>
        <mxCell id="u3rmII7wA66VC7M0_gPZ-26" value="" style="line;html=1;strokeWidth=1;align=left;verticalAlign=middle;spacingTop=-1;spacingLeft=3;spacingRight=3;rotatable=0;labelPosition=right;points=[];portConstraint=eastwest;" vertex="1" parent="u3rmII7wA66VC7M0_gPZ-25">
          <mxGeometry y="26" width="340" height="8" as="geometry" />
        </mxCell>
        <mxCell id="u3rmII7wA66VC7M0_gPZ-27" value="+ se_connecter(mdp_nh : str, pseudo : str) : bool&#xa;+ hacher_mdp(mdp_nh : str) : str&#xa;+ creer_utilisateur(mdp_nh : str, pseudo :str) : Utilisateur&#xa;+ deconnecter_utilisateur()&#xa;+ modifier_utilisateur(pseudo_utilisateur : str, &#xa;nv_mdp_nh : str) : Utilisateur&#xa;&#xa;" style="text;align=left;verticalAlign=top;spacingLeft=4;spacingRight=4;overflow=hidden;rotatable=0;points=[[0,0.5],[1,0.5]];portConstraint=eastwest;" vertex="1" parent="u3rmII7wA66VC7M0_gPZ-25">
          <mxGeometry y="34" width="340" height="86" as="geometry" />
        </mxCell>
        <mxCell id="u3rmII7wA66VC7M0_gPZ-28" style="edgeStyle=orthogonalEdgeStyle;rounded=0;orthogonalLoop=1;jettySize=auto;html=1;exitX=-0.004;exitY=0.765;exitDx=0;exitDy=0;exitPerimeter=0;" edge="1" parent="WIyWlLk6GJQsqaUBKTNV-1" source="u3rmII7wA66VC7M0_gPZ-27" target="u3rmII7wA66VC7M0_gPZ-18">
          <mxGeometry relative="1" as="geometry">
            <mxPoint x="1101" y="680" as="sourcePoint" />
          </mxGeometry>
        </mxCell>
        <mxCell id="u3rmII7wA66VC7M0_gPZ-29" value="" style="edgeStyle=orthogonalEdgeStyle;rounded=0;orthogonalLoop=1;jettySize=auto;html=1;exitX=0.25;exitY=1;exitDx=0;exitDy=0;entryX=0.75;entryY=0;entryDx=0;entryDy=0;" edge="1" parent="WIyWlLk6GJQsqaUBKTNV-1" source="u3rmII7wA66VC7M0_gPZ-22" target="u3rmII7wA66VC7M0_gPZ-8">
          <mxGeometry relative="1" as="geometry">
            <mxPoint x="900" y="640" as="sourcePoint" />
            <mxPoint x="440" y="633" as="targetPoint" />
            <Array as="points">
              <mxPoint x="1000" y="640" />
              <mxPoint x="700" y="640" />
            </Array>
          </mxGeometry>
        </mxCell>
        <mxCell id="u3rmII7wA66VC7M0_gPZ-51" style="edgeStyle=orthogonalEdgeStyle;rounded=0;orthogonalLoop=1;jettySize=auto;html=1;exitX=0.75;exitY=1;exitDx=0;exitDy=0;entryX=0.25;entryY=1;entryDx=0;entryDy=0;" edge="1" parent="WIyWlLk6GJQsqaUBKTNV-1" source="u3rmII7wA66VC7M0_gPZ-30" target="u3rmII7wA66VC7M0_gPZ-46">
          <mxGeometry relative="1" as="geometry">
            <Array as="points">
              <mxPoint x="1040" y="1080" />
              <mxPoint x="210" y="1080" />
            </Array>
          </mxGeometry>
        </mxCell>
        <mxCell id="u3rmII7wA66VC7M0_gPZ-52" style="edgeStyle=orthogonalEdgeStyle;rounded=0;orthogonalLoop=1;jettySize=auto;html=1;exitX=1;exitY=0.75;exitDx=0;exitDy=0;entryX=0.75;entryY=0;entryDx=0;entryDy=0;" edge="1" parent="WIyWlLk6GJQsqaUBKTNV-1" source="u3rmII7wA66VC7M0_gPZ-30" target="u3rmII7wA66VC7M0_gPZ-53">
          <mxGeometry relative="1" as="geometry">
            <mxPoint x="1280" y="1060" as="targetPoint" />
          </mxGeometry>
        </mxCell>
        <mxCell id="u3rmII7wA66VC7M0_gPZ-30" value="SonService" style="swimlane;fontStyle=0;align=center;verticalAlign=top;childLayout=stackLayout;horizontal=1;startSize=26;horizontalStack=0;resizeParent=1;resizeLast=0;collapsible=1;marginBottom=0;rounded=0;shadow=0;strokeWidth=1;" vertex="1" collapsed="1" parent="WIyWlLk6GJQsqaUBKTNV-1">
          <mxGeometry x="920" y="990" width="160" height="26" as="geometry">
            <mxRectangle x="850" y="710" width="290" height="310" as="alternateBounds" />
          </mxGeometry>
        </mxCell>
        <mxCell id="u3rmII7wA66VC7M0_gPZ-31" value="" style="line;html=1;strokeWidth=1;align=left;verticalAlign=middle;spacingTop=-1;spacingLeft=3;spacingRight=3;rotatable=0;labelPosition=right;points=[];portConstraint=eastwest;" vertex="1" parent="u3rmII7wA66VC7M0_gPZ-30">
          <mxGeometry y="26" width="290" height="8" as="geometry" />
        </mxCell>
        <mxCell id="u3rmII7wA66VC7M0_gPZ-32" value="+ ajouter_son(son: Son) : bool&#xa;+ supprimer_son(son: Son)&#xa;+ lister_son()&#xa;+ mute()&#xa;+ unmute()&#xa;+ augmenter_volume()&#xa;+ diminuer_volume()&#xa;+ play( son, duree)&#xa;+ resume()&#xa;+ stop()&#xa;+ stop_channel(canal:  int)&#xa;+  play_canal(son, temps, canal)&#xa;+ pause_canal(canal)&#xa;+ jouer_aleatoire(son, attente_min, attente_max, duree, canal)&#xa;+ pause()&#xa;+ unpause()&#xa;+ play_channel(son : Son, canal = None)&#xa;+ stop_sauf_plist()&#xa;+ selectionner_canal(canal)" style="text;align=left;verticalAlign=top;spacingLeft=4;spacingRight=4;overflow=hidden;rotatable=0;points=[[0,0.5],[1,0.5]];portConstraint=eastwest;" vertex="1" parent="u3rmII7wA66VC7M0_gPZ-30">
          <mxGeometry y="34" width="290" height="276" as="geometry" />
        </mxCell>
        <mxCell id="u3rmII7wA66VC7M0_gPZ-34" style="edgeStyle=orthogonalEdgeStyle;rounded=0;orthogonalLoop=1;jettySize=auto;html=1;entryX=0.5;entryY=1;entryDx=0;entryDy=0;exitX=0.487;exitY=1.01;exitDx=0;exitDy=0;exitPerimeter=0;" edge="1" parent="WIyWlLk6GJQsqaUBKTNV-1" source="u3rmII7wA66VC7M0_gPZ-32" target="u3rmII7wA66VC7M0_gPZ-0">
          <mxGeometry relative="1" as="geometry">
            <mxPoint x="969.04" y="1050" as="sourcePoint" />
            <mxPoint x="660" y="1189.996" as="targetPoint" />
            <Array as="points">
              <mxPoint x="998" y="1071" />
              <mxPoint x="675" y="1071" />
            </Array>
          </mxGeometry>
        </mxCell>
        <mxCell id="u3rmII7wA66VC7M0_gPZ-35" value="" style="edgeStyle=orthogonalEdgeStyle;rounded=0;orthogonalLoop=1;jettySize=auto;html=1;exitX=0.5;exitY=1;exitDx=0;exitDy=0;entryX=1;entryY=1;entryDx=0;entryDy=0;" edge="1" parent="WIyWlLk6GJQsqaUBKTNV-1" source="u3rmII7wA66VC7M0_gPZ-22" target="u3rmII7wA66VC7M0_gPZ-0">
          <mxGeometry relative="1" as="geometry">
            <mxPoint x="1100" y="993" as="sourcePoint" />
            <mxPoint x="715" y="866" as="targetPoint" />
            <Array as="points">
              <mxPoint x="1040" y="950" />
              <mxPoint x="755" y="950" />
            </Array>
          </mxGeometry>
        </mxCell>
        <mxCell id="u3rmII7wA66VC7M0_gPZ-37" style="edgeStyle=orthogonalEdgeStyle;rounded=0;orthogonalLoop=1;jettySize=auto;html=1;entryX=0.25;entryY=0;entryDx=0;entryDy=0;exitX=0.75;exitY=1;exitDx=0;exitDy=0;" edge="1" parent="WIyWlLk6GJQsqaUBKTNV-1" source="u3rmII7wA66VC7M0_gPZ-18" target="u3rmII7wA66VC7M0_gPZ-8">
          <mxGeometry relative="1" as="geometry">
            <mxPoint x="570" y="533" as="sourcePoint" />
            <mxPoint x="500" y="693" as="targetPoint" />
            <Array as="points">
              <mxPoint x="570" y="640" />
              <mxPoint x="620" y="640" />
            </Array>
          </mxGeometry>
        </mxCell>
        <mxCell id="u3rmII7wA66VC7M0_gPZ-39" value="Objets et Services&amp;nbsp;" style="swimlane;whiteSpace=wrap;html=1;" vertex="1" parent="WIyWlLk6GJQsqaUBKTNV-1">
          <mxGeometry x="420" y="420" width="730" height="680" as="geometry" />
        </mxCell>
        <mxCell id="u3rmII7wA66VC7M0_gPZ-40" value="Views" style="swimlane;fontStyle=0;align=center;verticalAlign=top;childLayout=stackLayout;horizontal=1;startSize=26;horizontalStack=0;resizeParent=1;resizeLast=0;collapsible=1;marginBottom=0;rounded=0;shadow=0;strokeWidth=1;" vertex="1" collapsed="1" parent="WIyWlLk6GJQsqaUBKTNV-1">
          <mxGeometry x="1270" y="530" width="160" height="26" as="geometry">
            <mxRectangle x="810" y="150" width="340" height="160" as="alternateBounds" />
          </mxGeometry>
        </mxCell>
        <mxCell id="u3rmII7wA66VC7M0_gPZ-41" value="" style="line;html=1;strokeWidth=1;align=left;verticalAlign=middle;spacingTop=-1;spacingLeft=3;spacingRight=3;rotatable=0;labelPosition=right;points=[];portConstraint=eastwest;" vertex="1" parent="u3rmII7wA66VC7M0_gPZ-40">
          <mxGeometry y="26" width="340" height="8" as="geometry" />
        </mxCell>
        <mxCell id="u3rmII7wA66VC7M0_gPZ-42" value="+ se_connecter(mdp_nh : str, pseudo : str) : bool&#xa;+ hacher_mdp(mdp_nh : str) : str&#xa;+ creer_utilisateur(mdp_nh : str, pseudo :str) : Utilisateur&#xa;+ deconnecter_utilisateur()&#xa;+ modifier_utilisateur(pseudo_utilisateur : str, &#xa;nv_mdp_nh : str) : Utilisateur&#xa;&#xa;" style="text;align=left;verticalAlign=top;spacingLeft=4;spacingRight=4;overflow=hidden;rotatable=0;points=[[0,0.5],[1,0.5]];portConstraint=eastwest;" vertex="1" parent="u3rmII7wA66VC7M0_gPZ-40">
          <mxGeometry y="34" width="340" height="86" as="geometry" />
        </mxCell>
        <mxCell id="u3rmII7wA66VC7M0_gPZ-43" style="edgeStyle=orthogonalEdgeStyle;rounded=0;orthogonalLoop=1;jettySize=auto;html=1;exitX=0.5;exitY=1;exitDx=0;exitDy=0;entryX=1;entryY=0.5;entryDx=0;entryDy=0;" edge="1" parent="WIyWlLk6GJQsqaUBKTNV-1" source="u3rmII7wA66VC7M0_gPZ-40" target="u3rmII7wA66VC7M0_gPZ-30">
          <mxGeometry relative="1" as="geometry">
            <mxPoint x="1550" y="706" as="sourcePoint" />
            <mxPoint x="1190" y="689" as="targetPoint" />
          </mxGeometry>
        </mxCell>
        <mxCell id="u3rmII7wA66VC7M0_gPZ-44" style="edgeStyle=orthogonalEdgeStyle;rounded=0;orthogonalLoop=1;jettySize=auto;html=1;exitX=0.25;exitY=1;exitDx=0;exitDy=0;entryX=1;entryY=0.5;entryDx=0;entryDy=0;" edge="1" parent="WIyWlLk6GJQsqaUBKTNV-1" source="u3rmII7wA66VC7M0_gPZ-40" target="u3rmII7wA66VC7M0_gPZ-22">
          <mxGeometry relative="1" as="geometry">
            <mxPoint x="1360" y="566" as="sourcePoint" />
            <mxPoint x="1090" y="1013" as="targetPoint" />
          </mxGeometry>
        </mxCell>
        <mxCell id="u3rmII7wA66VC7M0_gPZ-45" style="edgeStyle=orthogonalEdgeStyle;rounded=0;orthogonalLoop=1;jettySize=auto;html=1;exitX=0.25;exitY=0;exitDx=0;exitDy=0;entryX=1;entryY=0.5;entryDx=0;entryDy=0;" edge="1" parent="WIyWlLk6GJQsqaUBKTNV-1" source="u3rmII7wA66VC7M0_gPZ-40" target="u3rmII7wA66VC7M0_gPZ-25">
          <mxGeometry relative="1" as="geometry">
            <mxPoint x="1321" y="400" as="sourcePoint" />
            <mxPoint x="1131" y="457" as="targetPoint" />
          </mxGeometry>
        </mxCell>
        <mxCell id="u3rmII7wA66VC7M0_gPZ-46" value="DAO" style="swimlane;fontStyle=0;align=center;verticalAlign=top;childLayout=stackLayout;horizontal=1;startSize=26;horizontalStack=0;resizeParent=1;resizeLast=0;collapsible=1;marginBottom=0;rounded=0;shadow=0;strokeWidth=1;" vertex="1" collapsed="1" parent="WIyWlLk6GJQsqaUBKTNV-1">
          <mxGeometry x="170" y="516" width="160" height="26" as="geometry">
            <mxRectangle x="810" y="150" width="340" height="160" as="alternateBounds" />
          </mxGeometry>
        </mxCell>
        <mxCell id="u3rmII7wA66VC7M0_gPZ-47" value="" style="line;html=1;strokeWidth=1;align=left;verticalAlign=middle;spacingTop=-1;spacingLeft=3;spacingRight=3;rotatable=0;labelPosition=right;points=[];portConstraint=eastwest;" vertex="1" parent="u3rmII7wA66VC7M0_gPZ-46">
          <mxGeometry y="26" width="340" height="8" as="geometry" />
        </mxCell>
        <mxCell id="u3rmII7wA66VC7M0_gPZ-48" value="+ se_connecter(mdp_nh : str, pseudo : str) : bool&#xa;+ hacher_mdp(mdp_nh : str) : str&#xa;+ creer_utilisateur(mdp_nh : str, pseudo :str) : Utilisateur&#xa;+ deconnecter_utilisateur()&#xa;+ modifier_utilisateur(pseudo_utilisateur : str, &#xa;nv_mdp_nh : str) : Utilisateur&#xa;&#xa;" style="text;align=left;verticalAlign=top;spacingLeft=4;spacingRight=4;overflow=hidden;rotatable=0;points=[[0,0.5],[1,0.5]];portConstraint=eastwest;" vertex="1" parent="u3rmII7wA66VC7M0_gPZ-46">
          <mxGeometry y="34" width="340" height="86" as="geometry" />
        </mxCell>
        <mxCell id="u3rmII7wA66VC7M0_gPZ-53" value="API" style="swimlane;fontStyle=0;align=center;verticalAlign=top;childLayout=stackLayout;horizontal=1;startSize=26;horizontalStack=0;resizeParent=1;resizeLast=0;collapsible=1;marginBottom=0;rounded=0;shadow=0;strokeWidth=1;" vertex="1" collapsed="1" parent="WIyWlLk6GJQsqaUBKTNV-1">
          <mxGeometry x="1200" y="1060" width="160" height="26" as="geometry">
            <mxRectangle x="810" y="150" width="340" height="160" as="alternateBounds" />
          </mxGeometry>
        </mxCell>
        <mxCell id="u3rmII7wA66VC7M0_gPZ-54" value="" style="line;html=1;strokeWidth=1;align=left;verticalAlign=middle;spacingTop=-1;spacingLeft=3;spacingRight=3;rotatable=0;labelPosition=right;points=[];portConstraint=eastwest;" vertex="1" parent="u3rmII7wA66VC7M0_gPZ-53">
          <mxGeometry y="26" width="340" height="8" as="geometry" />
        </mxCell>
        <mxCell id="u3rmII7wA66VC7M0_gPZ-55" value="+ se_connecter(mdp_nh : str, pseudo : str) : bool&#xa;+ hacher_mdp(mdp_nh : str) : str&#xa;+ creer_utilisateur(mdp_nh : str, pseudo :str) : Utilisateur&#xa;+ deconnecter_utilisateur()&#xa;+ modifier_utilisateur(pseudo_utilisateur : str, &#xa;nv_mdp_nh : str) : Utilisateur&#xa;&#xa;" style="text;align=left;verticalAlign=top;spacingLeft=4;spacingRight=4;overflow=hidden;rotatable=0;points=[[0,0.5],[1,0.5]];portConstraint=eastwest;" vertex="1" parent="u3rmII7wA66VC7M0_gPZ-53">
          <mxGeometry y="34" width="340" height="86" as="geometry" />
        </mxCell>
      </root>
    </mxGraphModel>
  </diagram>
</mxfile>
